<svg xmlns="http://www.w3.org/2000/svg" width="1560" height="840" viewBox="0 0 1560 840"><defs><marker id="ag" markerWidth="9" markerHeight="9" refX="8" refY="3" orient="auto"><path d="M0,0 L0,6 L8,3 z" fill="#1FA97A"/></marker><marker id="ab" markerWidth="8" markerHeight="8" refX="7" refY="2.6" orient="auto"><path d="M0,0 L0,5.2 L7,2.6 z" fill="#1F5FBF"/></marker><marker id="aa" markerWidth="8" markerHeight="8" refX="7" refY="2.6" orient="auto"><path d="M0,0 L0,5.2 L7,2.6 z" fill="#C98F2C"/></marker></defs><rect width="1560" height="840" fill="#FFFFFF"/><text x="780" y="44" font-family="Inter,Segoe UI,Helvetica,Arial,sans-serif" font-size="19" font-weight="700" fill="#0F1C2E" text-anchor="middle">Figura DV-04.7 — Cartera, dashboard y coordinación</text><text x="780" y="66" font-family="Inter,Segoe UI,Helvetica,Arial,sans-serif" font-size="12.5" font-weight="500" fill="#6B7A90" text-anchor="middle">Superficies de consulta del profesional y del asesorado, más coordinación y novedades.</text><line x1="40" y1="86" x2="1520" y2="86" stroke="#C9D3E0"/><path d="M105 480C124 700 144 700 182 700L796 700Q820 700 820 341" stroke="#1FA97A" stroke-width="1.3" fill="none" opacity=".55" stroke-linecap="round"/><path d="M105 480C124 700 144 700 182 700L1340 700Q1364 700 1364 235" stroke="#1FA97A" stroke-width="1.3" fill="none" opacity=".55" stroke-linecap="round"/><path d="M105 310C124 690 144 690 182 690L796 690Q820 690 820 235" stroke="#1FA97A" stroke-width="1.3" fill="none" opacity=".55" stroke-linecap="round"/><path d="M105 310C124 690 144 690 182 690L524 690Q548 690 548 235" stroke="#1FA97A" stroke-width="1.3" fill="none" opacity=".55" stroke-linecap="round"/><path d="M105 310C124 690 144 690 182 690L252 690Q276 690 276 235" stroke="#1FA97A" stroke-width="1.3" fill="none" opacity=".55" stroke-linecap="round"/><path d="M548 262L548 241" stroke="#C98F2C" stroke-width="1.5" stroke-dasharray="7 4" fill="none" marker-end="url(#aa)"/><rect x="518" y="242" width="60" height="16" rx="4" fill="#FFFFFF" opacity=".92"/><text x="548" y="254" font-family="Inter,Segoe UI,Helvetica,Arial,sans-serif" font-size="10.5" font-weight="600" fill="#C98F2C" text-anchor="middle">«extend»</text><path d="M1092 262L1092 241" stroke="#C98F2C" stroke-width="1.5" stroke-dasharray="7 4" fill="none" marker-end="url(#aa)"/><rect x="1062" y="242" width="60" height="16" rx="4" fill="#FFFFFF" opacity=".92"/><text x="1092" y="254" font-family="Inter,Segoe UI,Helvetica,Arial,sans-serif" font-size="10.5" font-weight="600" fill="#C98F2C" text-anchor="middle">«extend»</text><text x="276" y="116" font-family="Inter,Segoe UI,Helvetica,Arial,sans-serif" font-size="12.5" font-weight="700" fill="#6B7A90" text-anchor="middle">Cartera y revisión</text><line x1="170" y1="126" x2="382" y2="126" stroke="#C9D3E0"/><ellipse cx="276" cy="190" rx="76" ry="42" fill="#FFFFFF" stroke="#1F5FBF" stroke-width="1.9"/><text x="276" y="165" font-family="Inter,Segoe UI,Helvetica,Arial,sans-serif" font-size="11.5" font-weight="700" fill="#1F5FBF" text-anchor="middle">UC-P23</text><text x="276" y="182" font-family="Inter,Segoe UI,Helvetica,Arial,sans-serif" font-size="12" font-weight="500" fill="#0F1C2E" text-anchor="middle">Cartera y</text><text x="276" y="196" font-family="Inter,Segoe UI,Helvetica,Arial,sans-serif" font-size="12" font-weight="500" fill="#0F1C2E" text-anchor="middle">pendientes</text><text x="548" y="116" font-family="Inter,Segoe UI,Helvetica,Arial,sans-serif" font-size="12.5" font-weight="700" fill="#6B7A90" text-anchor="middle">Dashboard y línea temporal</text><line x1="442" y1="126" x2="654" y2="126" stroke="#C9D3E0"/><ellipse cx="548" cy="190" rx="76" ry="42" fill="#FFFFFF" stroke="#1F5FBF" stroke-width="1.9"/><text x="548" y="165" font-family="Inter,Segoe UI,Helvetica,Arial,sans-serif" font-size="11.5" font-weight="700" fill="#1F5FBF" text-anchor="middle">UC-P24</text><text x="548" y="182" font-family="Inter,Segoe UI,Helvetica,Arial,sans-serif" font-size="12" font-weight="500" fill="#0F1C2E" text-anchor="middle">Dashboard y</text><text x="548" y="196" font-family="Inter,Segoe UI,Helvetica,Arial,sans-serif" font-size="12" font-weight="500" fill="#0F1C2E" text-anchor="middle">línea temporal</text><ellipse cx="548" cy="296" rx="70" ry="38" fill="#FBF1DC" stroke="#C98F2C" stroke-width="1.5" stroke-dasharray="6 3"/><text x="548" y="275" font-family="Inter,Segoe UI,Helvetica,Arial,sans-serif" font-size="11.5" font-weight="700" fill="#C98F2C" text-anchor="middle">UC-E07</text><text x="548" y="292" font-family="Inter,Segoe UI,Helvetica,Arial,sans-serif" font-size="11.5" font-weight="500" fill="#6B7A90" text-anchor="middle">Nota de</text><text x="548" y="306" font-family="Inter,Segoe UI,Helvetica,Arial,sans-serif" font-size="11.5" font-weight="500" fill="#6B7A90" text-anchor="middle">coordinación</text><text x="820" y="116" font-family="Inter,Segoe UI,Helvetica,Arial,sans-serif" font-size="12.5" font-weight="700" fill="#6B7A90" text-anchor="middle">Solicitudes de información</text><line x1="714" y1="126" x2="926" y2="126" stroke="#C9D3E0"/><ellipse cx="820" cy="190" rx="76" ry="42" fill="#FFFFFF" stroke="#1F5FBF" stroke-width="1.9"/><text x="820" y="165" font-family="Inter,Segoe UI,Helvetica,Arial,sans-serif" font-size="11.5" font-weight="700" fill="#1F5FBF" text-anchor="middle">UC-P32</text><text x="820" y="182" font-family="Inter,Segoe UI,Helvetica,Arial,sans-serif" font-size="12" font-weight="500" fill="#0F1C2E" text-anchor="middle">Solicitar</text><text x="820" y="196" font-family="Inter,Segoe UI,Helvetica,Arial,sans-serif" font-size="12" font-weight="500" fill="#0F1C2E" text-anchor="middle">información</text><ellipse cx="820" cy="296" rx="76" ry="42" fill="#FFFFFF" stroke="#1F5FBF" stroke-width="1.9"/><text x="820" y="271" font-family="Inter,Segoe UI,Helvetica,Arial,sans-serif" font-size="11.5" font-weight="700" fill="#1F5FBF" text-anchor="middle">UC-P33</text><text x="820" y="288" font-family="Inter,Segoe UI,Helvetica,Arial,sans-serif" font-size="12" font-weight="500" fill="#0F1C2E" text-anchor="middle">Completar</text><text x="820" y="302" font-family="Inter,Segoe UI,Helvetica,Arial,sans-serif" font-size="12" font-weight="500" fill="#0F1C2E" text-anchor="middle">solicitud</text><text x="1092" y="116" font-family="Inter,Segoe UI,Helvetica,Arial,sans-serif" font-size="12.5" font-weight="700" fill="#6B7A90" text-anchor="middle">Novedades</text><line x1="986" y1="126" x2="1198" y2="126" stroke="#C9D3E0"/><ellipse cx="1092" cy="190" rx="76" ry="42" fill="#FFFFFF" stroke="#1F5FBF" stroke-width="1.9"/><text x="1092" y="165" font-family="Inter,Segoe UI,Helvetica,Arial,sans-serif" font-size="11.5" font-weight="700" fill="#1F5FBF" text-anchor="middle">UC-P30</text><text x="1092" y="182" font-family="Inter,Segoe UI,Helvetica,Arial,sans-serif" font-size="12" font-weight="500" fill="#0F1C2E" text-anchor="middle">Notificaciones</text><text x="1092" y="196" font-family="Inter,Segoe UI,Helvetica,Arial,sans-serif" font-size="12" font-weight="500" fill="#0F1C2E" text-anchor="middle">y novedades</text><ellipse cx="1092" cy="296" rx="70" ry="38" fill="#FBF1DC" stroke="#C98F2C" stroke-width="1.5" stroke-dasharray="6 3"/><text x="1092" y="275" font-family="Inter,Segoe UI,Helvetica,Arial,sans-serif" font-size="11.5" font-weight="700" fill="#C98F2C" text-anchor="middle">UC-E08</text><text x="1092" y="292" font-family="Inter,Segoe UI,Helvetica,Arial,sans-serif" font-size="11.5" font-weight="500" fill="#6B7A90" text-anchor="middle">Push no</text><text x="1092" y="306" font-family="Inter,Segoe UI,Helvetica,Arial,sans-serif" font-size="11.5" font-weight="500" fill="#6B7A90" text-anchor="middle">sensible</text><text x="1364" y="116" font-family="Inter,Segoe UI,Helvetica,Arial,sans-serif" font-size="12.5" font-weight="700" fill="#6B7A90" text-anchor="middle">Progreso propio</text><line x1="1258" y1="126" x2="1470" y2="126" stroke="#C9D3E0"/><ellipse cx="1364" cy="190" rx="76" ry="42" fill="#FFFFFF" stroke="#1F5FBF" stroke-width="1.9"/><text x="1364" y="165" font-family="Inter,Segoe UI,Helvetica,Arial,sans-serif" font-size="11.5" font-weight="700" fill="#1F5FBF" text-anchor="middle">UC-P31</text><text x="1364" y="182" font-family="Inter,Segoe UI,Helvetica,Arial,sans-serif" font-size="12" font-weight="500" fill="#0F1C2E" text-anchor="middle">Progreso</text><text x="1364" y="196" font-family="Inter,Segoe UI,Helvetica,Arial,sans-serif" font-size="12" font-weight="500" fill="#0F1C2E" text-anchor="middle">propio</text><circle cx="90" cy="274" r="8.5" fill="#1FA97A"/><path d="M90 283V304 M77 290H103 M90 304L79 320 M90 304L101 320" stroke="#1FA97A" stroke-width="2" fill="none" stroke-linecap="round"/><text x="90" y="336" font-family="Inter,Segoe UI,Helvetica,Arial,sans-serif" font-size="12" font-weight="700" fill="#0F1C2E" text-anchor="middle">Profesional</text><circle cx="90" cy="444" r="8.5" fill="#1FA97A"/><path d="M90 453V474 M77 460H103 M90 474L79 490 M90 474L101 490" stroke="#1FA97A" stroke-width="2" fill="none" stroke-linecap="round"/><text x="90" y="506" font-family="Inter,Segoe UI,Helvetica,Arial,sans-serif" font-size="12" font-weight="700" fill="#0F1C2E" text-anchor="middle">Asesorado</text><rect x="40" y="673" width="600" height="127" rx="10" fill="#FBFCFE" stroke="#C9D3E0"/><line x1="60" y1="691" x2="96" y2="691" stroke="#1F5FBF" stroke-width="1.4" stroke-dasharray="5 4"/><text x="108" y="695" font-family="Inter,Segoe UI,Helvetica,Arial,sans-serif" font-size="11.5" font-weight="600" fill="#0F1C2E" text-anchor="start">«include» hacia el caso incluido</text><line x1="60" y1="712" x2="96" y2="712" stroke="#C98F2C" stroke-width="1.5" stroke-dasharray="7 4"/><text x="108" y="716" font-family="Inter,Segoe UI,Helvetica,Arial,sans-serif" font-size="11.5" font-weight="600" fill="#0F1C2E" text-anchor="start">«extend» — extiende el caso base</text><ellipse cx="78" cy="733" rx="18" ry="10" fill="#FFFFFF" stroke="#1F5FBF" stroke-width="1.7"/><text x="108" y="737" font-family="Inter,Segoe UI,Helvetica,Arial,sans-serif" font-size="11.5" font-weight="600" fill="#0F1C2E" text-anchor="start">Caso principal — lo ejecuta un actor</text><ellipse cx="78" cy="754" rx="18" ry="10" fill="#EAF1FB" stroke="#9FBFEA" stroke-width="1.3" stroke-dasharray="4 3"/><text x="108" y="758" font-family="Inter,Segoe UI,Helvetica,Arial,sans-serif" font-size="11.5" font-weight="600" fill="#0F1C2E" text-anchor="start">Caso incluido — lo invoca otro caso</text><ellipse cx="78" cy="775" rx="18" ry="10" fill="#FBF1DC" stroke="#C98F2C" stroke-width="1.4" stroke-dasharray="6 3"/><text x="108" y="779" font-family="Inter,Segoe UI,Helvetica,Arial,sans-serif" font-size="11.5" font-weight="600" fill="#0F1C2E" text-anchor="start">Caso de extensión</text><text x="674" y="695" font-family="Inter,Segoe UI,Helvetica,Arial,sans-serif" font-size="11.5" font-weight="500" fill="#6B7A90" text-anchor="start">Vista sin secuencia natural: los casos se agrupan por materia.</text><text x="674" y="714" font-family="Inter,Segoe UI,Helvetica,Arial,sans-serif" font-size="11.5" font-weight="500" fill="#6B7A90" text-anchor="start">Los casos principales incluyen además UC-I02, UC-I03, UC-I11.</text><text x="674" y="733" font-family="Inter,Segoe UI,Helvetica,Arial,sans-serif" font-size="11.5" font-weight="500" fill="#6B7A90" text-anchor="start">Relaciones completas en DV-04_RELACIONES_UML.csv.</text><text x="674" y="752" font-family="Inter,Segoe UI,Helvetica,Arial,sans-serif" font-size="11.5" font-weight="500" fill="#6B7A90" text-anchor="start">Nombres canónicos completos en DV-04_UC_INDICE.md.</text><text x="674" y="771" font-family="Inter,Segoe UI,Helvetica,Arial,sans-serif" font-size="11.5" font-weight="500" fill="#6B7A90" text-anchor="start"></text><text x="674" y="790" font-family="Inter,Segoe UI,Helvetica,Arial,sans-serif" font-size="11.5" font-weight="500" fill="#6B7A90" text-anchor="start">Derivado de BE-LEG-05 v0.15 · sin cambio semántico · estado: BASELINE</text></svg>