<svg xmlns="http://www.w3.org/2000/svg" width="1320" height="880" viewBox="0 0 1320 880"><defs><marker id="ag" markerWidth="9" markerHeight="9" refX="8" refY="3" orient="auto"><path d="M0,0 L0,6 L8,3 z" fill="#1FA97A"/></marker><marker id="ab" markerWidth="8" markerHeight="8" refX="7" refY="2.6" orient="auto"><path d="M0,0 L0,5.2 L7,2.6 z" fill="#1F5FBF"/></marker><marker id="aa" markerWidth="8" markerHeight="8" refX="7" refY="2.6" orient="auto"><path d="M0,0 L0,5.2 L7,2.6 z" fill="#C98F2C"/></marker></defs><rect width="1320" height="880" fill="#FFFFFF"/><text x="660" y="44" font-family="Inter,Segoe UI,Helvetica,Arial,sans-serif" font-size="19" font-weight="700" fill="#0F1C2E" text-anchor="middle">Figura DV-04.1 — Identidad y cuenta</text><text x="660" y="66" font-family="Inter,Segoe UI,Helvetica,Arial,sans-serif" font-size="12.5" font-weight="500" fill="#6B7A90" text-anchor="middle">Ciclo de la cuenta propia: registro, sesión y cierre, con sus vías alternativas de acceso.</text><line x1="40" y1="86" x2="1280" y2="86" stroke="#C9D3E0"/><path d="M133 340C152 600 172 600 210 600L1136 600Q1160 600 1160 423" stroke="#1FA97A" stroke-width="1.3" fill="none" opacity=".55" stroke-linecap="round"/><path d="M133 340C152 600 172 600 210 600L706 600Q730 600 730 423" stroke="#1FA97A" stroke-width="1.3" fill="none" opacity=".55" stroke-linecap="round"/><path d="M133 340C152 600 172 600 210 600L276 600Q300 600 300 423" stroke="#1FA97A" stroke-width="1.3" fill="none" opacity=".55" stroke-linecap="round"/><path d="M380 378L644 378" stroke="#1FA97A" stroke-width="2.6" fill="none" marker-end="url(#ag)"/><path d="M810 378L1074 378" stroke="#1FA97A" stroke-width="2.6" fill="none" marker-end="url(#ag)"/><path d="M704 239L711 328" stroke="#C98F2C" stroke-width="1.5" stroke-dasharray="7 4" fill="none" marker-end="url(#aa)"/><rect x="678" y="275" width="60" height="16" rx="4" fill="#FFFFFF" opacity=".92"/><text x="708" y="287" font-family="Inter,Segoe UI,Helvetica,Arial,sans-serif" font-size="10.5" font-weight="600" fill="#C98F2C" text-anchor="middle">«extend»</text><path d="M839 232L786 340" stroke="#C98F2C" stroke-width="1.5" stroke-dasharray="7 4" fill="none" marker-end="url(#aa)"/><rect x="782" y="277" width="60" height="16" rx="4" fill="#FFFFFF" opacity=".92"/><text x="812" y="289" font-family="Inter,Segoe UI,Helvetica,Arial,sans-serif" font-size="10.5" font-weight="600" fill="#C98F2C" text-anchor="middle">«extend»</text><path d="M749 516L745 428" stroke="#C98F2C" stroke-width="1.5" stroke-dasharray="7 4" fill="none" marker-end="url(#aa)"/><rect x="717" y="463" width="60" height="16" rx="4" fill="#FFFFFF" opacity=".92"/><text x="747" y="475" font-family="Inter,Segoe UI,Helvetica,Arial,sans-serif" font-size="10.5" font-weight="600" fill="#C98F2C" text-anchor="middle">«extend»</text><ellipse cx="300" cy="378" rx="76" ry="42" fill="#FFFFFF" stroke="#1F5FBF" stroke-width="1.9"/><text x="300" y="353" font-family="Inter,Segoe UI,Helvetica,Arial,sans-serif" font-size="11.5" font-weight="700" fill="#1F5FBF" text-anchor="middle">UC-P25</text><text x="300" y="370" font-family="Inter,Segoe UI,Helvetica,Arial,sans-serif" font-size="12" font-weight="500" fill="#0F1C2E" text-anchor="middle">Registro de</text><text x="300" y="384" font-family="Inter,Segoe UI,Helvetica,Arial,sans-serif" font-size="12" font-weight="500" fill="#0F1C2E" text-anchor="middle">identidad</text><ellipse cx="730" cy="378" rx="76" ry="42" fill="#FFFFFF" stroke="#1F5FBF" stroke-width="1.9"/><text x="730" y="353" font-family="Inter,Segoe UI,Helvetica,Arial,sans-serif" font-size="11.5" font-weight="700" fill="#1F5FBF" text-anchor="middle">UC-P26</text><text x="730" y="370" font-family="Inter,Segoe UI,Helvetica,Arial,sans-serif" font-size="12" font-weight="500" fill="#0F1C2E" text-anchor="middle">Sesión</text><text x="730" y="384" font-family="Inter,Segoe UI,Helvetica,Arial,sans-serif" font-size="12" font-weight="500" fill="#0F1C2E" text-anchor="middle">local</text><ellipse cx="1160" cy="378" rx="76" ry="42" fill="#FFFFFF" stroke="#1F5FBF" stroke-width="1.9"/><text x="1160" y="353" font-family="Inter,Segoe UI,Helvetica,Arial,sans-serif" font-size="11.5" font-weight="700" fill="#1F5FBF" text-anchor="middle">UC-P27</text><text x="1160" y="370" font-family="Inter,Segoe UI,Helvetica,Arial,sans-serif" font-size="12" font-weight="500" fill="#0F1C2E" text-anchor="middle">Cierre de</text><text x="1160" y="384" font-family="Inter,Segoe UI,Helvetica,Arial,sans-serif" font-size="12" font-weight="500" fill="#0F1C2E" text-anchor="middle">cuenta</text><ellipse cx="690" cy="206" rx="70" ry="38" fill="#FBF1DC" stroke="#C98F2C" stroke-width="1.5" stroke-dasharray="6 3"/><text x="690" y="185" font-family="Inter,Segoe UI,Helvetica,Arial,sans-serif" font-size="11.5" font-weight="700" fill="#C98F2C" text-anchor="middle">UC-E05</text><text x="690" y="202" font-family="Inter,Segoe UI,Helvetica,Arial,sans-serif" font-size="11.5" font-weight="500" fill="#6B7A90" text-anchor="middle">Acceso</text><text x="690" y="216" font-family="Inter,Segoe UI,Helvetica,Arial,sans-serif" font-size="11.5" font-weight="500" fill="#6B7A90" text-anchor="middle">Google</text><ellipse cx="880" cy="206" rx="70" ry="38" fill="#FBF1DC" stroke="#C98F2C" stroke-width="1.5" stroke-dasharray="6 3"/><text x="880" y="185" font-family="Inter,Segoe UI,Helvetica,Arial,sans-serif" font-size="11.5" font-weight="700" fill="#C98F2C" text-anchor="middle">UC-E06</text><text x="880" y="202" font-family="Inter,Segoe UI,Helvetica,Arial,sans-serif" font-size="11.5" font-weight="500" fill="#6B7A90" text-anchor="middle">Métodos de</text><text x="880" y="216" font-family="Inter,Segoe UI,Helvetica,Arial,sans-serif" font-size="11.5" font-weight="500" fill="#6B7A90" text-anchor="middle">acceso</text><ellipse cx="760" cy="550" rx="70" ry="38" fill="#FBF1DC" stroke="#C98F2C" stroke-width="1.5" stroke-dasharray="6 3"/><text x="760" y="529" font-family="Inter,Segoe UI,Helvetica,Arial,sans-serif" font-size="11.5" font-weight="700" fill="#C98F2C" text-anchor="middle">UC-E09</text><text x="760" y="546" font-family="Inter,Segoe UI,Helvetica,Arial,sans-serif" font-size="11.5" font-weight="500" fill="#6B7A90" text-anchor="middle">Recuperar</text><text x="760" y="560" font-family="Inter,Segoe UI,Helvetica,Arial,sans-serif" font-size="11.5" font-weight="500" fill="#6B7A90" text-anchor="middle">acceso</text><circle cx="118" cy="304" r="8.5" fill="#1FA97A"/><path d="M118 313V334 M105 320H131 M118 334L107 350 M118 334L129 350" stroke="#1FA97A" stroke-width="2" fill="none" stroke-linecap="round"/><text x="118" y="366" font-family="Inter,Segoe UI,Helvetica,Arial,sans-serif" font-size="12" font-weight="700" fill="#0F1C2E" text-anchor="middle">Asesorado</text><rect x="40" y="692" width="600" height="148" rx="10" fill="#FBFCFE" stroke="#C9D3E0"/><line x1="60" y1="710" x2="96" y2="710" stroke="#1FA97A" stroke-width="2.6"/><text x="108" y="714" font-family="Inter,Segoe UI,Helvetica,Arial,sans-serif" font-size="11.5" font-weight="600" fill="#0F1C2E" text-anchor="start">Secuencia del circuito — orden del proceso, no relación UML</text><line x1="60" y1="731" x2="96" y2="731" stroke="#1F5FBF" stroke-width="1.4" stroke-dasharray="5 4"/><text x="108" y="735" font-family="Inter,Segoe UI,Helvetica,Arial,sans-serif" font-size="11.5" font-weight="600" fill="#0F1C2E" text-anchor="start">«include» hacia el caso incluido</text><line x1="60" y1="752" x2="96" y2="752" stroke="#C98F2C" stroke-width="1.5" stroke-dasharray="7 4"/><text x="108" y="756" font-family="Inter,Segoe UI,Helvetica,Arial,sans-serif" font-size="11.5" font-weight="600" fill="#0F1C2E" text-anchor="start">«extend» — extiende el caso base</text><ellipse cx="78" cy="773" rx="18" ry="10" fill="#FFFFFF" stroke="#1F5FBF" stroke-width="1.7"/><text x="108" y="777" font-family="Inter,Segoe UI,Helvetica,Arial,sans-serif" font-size="11.5" font-weight="600" fill="#0F1C2E" text-anchor="start">Caso principal — lo ejecuta un actor</text><ellipse cx="78" cy="794" rx="18" ry="10" fill="#EAF1FB" stroke="#9FBFEA" stroke-width="1.3" stroke-dasharray="4 3"/><text x="108" y="798" font-family="Inter,Segoe UI,Helvetica,Arial,sans-serif" font-size="11.5" font-weight="600" fill="#0F1C2E" text-anchor="start">Caso incluido — lo invoca otro caso</text><ellipse cx="78" cy="815" rx="18" ry="10" fill="#FBF1DC" stroke="#C98F2C" stroke-width="1.4" stroke-dasharray="6 3"/><text x="108" y="819" font-family="Inter,Segoe UI,Helvetica,Arial,sans-serif" font-size="11.5" font-weight="600" fill="#0F1C2E" text-anchor="start">Caso de extensión</text><text x="674" y="714" font-family="Inter,Segoe UI,Helvetica,Arial,sans-serif" font-size="11.5" font-weight="500" fill="#6B7A90" text-anchor="start">Los casos principales incluyen además UC-I02, UC-I03, UC-I11.</text><text x="674" y="733" font-family="Inter,Segoe UI,Helvetica,Arial,sans-serif" font-size="11.5" font-weight="500" fill="#6B7A90" text-anchor="start">No se dibujan para preservar legibilidad: están en DV-04_RELACIONES_UML.csv.</text><text x="674" y="752" font-family="Inter,Segoe UI,Helvetica,Arial,sans-serif" font-size="11.5" font-weight="500" fill="#6B7A90" text-anchor="start">Nombres canónicos completos en DV-04_UC_INDICE.md.</text><text x="674" y="771" font-family="Inter,Segoe UI,Helvetica,Arial,sans-serif" font-size="11.5" font-weight="500" fill="#6B7A90" text-anchor="start"></text><text x="674" y="790" font-family="Inter,Segoe UI,Helvetica,Arial,sans-serif" font-size="11.5" font-weight="500" fill="#6B7A90" text-anchor="start">Derivado de BE-LEG-05 v0.15 · sin cambio semántico · estado: BASELINE</text></svg>