<svg xmlns="http://www.w3.org/2000/svg" width="1600" height="900" viewBox="0 0 1600 900"><defs><marker id="ag" markerWidth="9" markerHeight="9" refX="8" refY="3" orient="auto"><path d="M0,0 L0,6 L8,3 z" fill="#1FA97A"/></marker><marker id="ab" markerWidth="8" markerHeight="8" refX="7" refY="2.6" orient="auto"><path d="M0,0 L0,5.2 L7,2.6 z" fill="#1F5FBF"/></marker><marker id="aa" markerWidth="8" markerHeight="8" refX="7" refY="2.6" orient="auto"><path d="M0,0 L0,5.2 L7,2.6 z" fill="#C98F2C"/></marker></defs><rect width="1600" height="900" fill="#FFFFFF"/><text x="800" y="44" font-family="Inter,Segoe UI,Helvetica,Arial,sans-serif" font-size="19" font-weight="700" fill="#0F1C2E" text-anchor="middle">Figura DV-04.4 — Nutrición</text><text x="800" y="66" font-family="Inter,Segoe UI,Helvetica,Arial,sans-serif" font-size="12.5" font-weight="500" fill="#6B7A90" text-anchor="middle">Circuito nutricional: cinco casos principales en secuencia, con sus casos incluidos.</text><line x1="40" y1="86" x2="1560" y2="86" stroke="#C9D3E0"/><path d="M1025 676C1044 612 1064 612 1102 612L1131 612Q1155 612 1155 432" stroke="#1FA97A" stroke-width="1.3" fill="none" opacity=".55" stroke-linecap="round"/><path d="M133 340C152 600 172 600 210 600L1416 600Q1440 600 1440 432" stroke="#1FA97A" stroke-width="1.3" fill="none" opacity=".55" stroke-linecap="round"/><path d="M133 340C152 600 172 600 210 600L846 600Q870 600 870 432" stroke="#1FA97A" stroke-width="1.3" fill="none" opacity=".55" stroke-linecap="round"/><path d="M133 340C152 600 172 600 210 600L561 600Q585 600 585 432" stroke="#1FA97A" stroke-width="1.3" fill="none" opacity=".55" stroke-linecap="round"/><path d="M133 340C152 600 172 600 210 600L276 600Q300 600 300 432" stroke="#1FA97A" stroke-width="1.3" fill="none" opacity=".55" stroke-linecap="round"/><path d="M380 387L499 387" stroke="#1FA97A" stroke-width="2.6" fill="none" marker-end="url(#ag)"/><path d="M665 387L784 387" stroke="#1FA97A" stroke-width="2.6" fill="none" marker-end="url(#ag)"/><path d="M950 387L1069 387" stroke="#1FA97A" stroke-width="2.6" fill="none" marker-end="url(#ag)"/><path d="M1235 387L1354 387" stroke="#1FA97A" stroke-width="2.6" fill="none" marker-end="url(#ag)"/><path d="M312 350L317 260" stroke="#1F5FBF" stroke-width="1.4" stroke-dasharray="5 4" fill="none" marker-end="url(#ab)" opacity=".85"/><path d="M597 350L602 260" stroke="#1F5FBF" stroke-width="1.4" stroke-dasharray="5 4" fill="none" marker-end="url(#ab)" opacity=".85"/><path d="M597 424L602 514" stroke="#1F5FBF" stroke-width="1.4" stroke-dasharray="5 4" fill="none" marker-end="url(#ab)" opacity=".85"/><path d="M882 350L887 260" stroke="#1F5FBF" stroke-width="1.4" stroke-dasharray="5 4" fill="none" marker-end="url(#ab)" opacity=".85"/><path d="M882 424L887 514" stroke="#1F5FBF" stroke-width="1.4" stroke-dasharray="5 4" fill="none" marker-end="url(#ab)" opacity=".85"/><path d="M1452 350L1457 260" stroke="#1F5FBF" stroke-width="1.4" stroke-dasharray="5 4" fill="none" marker-end="url(#ab)" opacity=".85"/><path d="M1452 424L1457 514" stroke="#1F5FBF" stroke-width="1.4" stroke-dasharray="5 4" fill="none" marker-end="url(#ab)" opacity=".85"/><ellipse cx="300" cy="387" rx="76" ry="42" fill="#FFFFFF" stroke="#1F5FBF" stroke-width="1.9"/><text x="300" y="362" font-family="Inter,Segoe UI,Helvetica,Arial,sans-serif" font-size="11.5" font-weight="700" fill="#1F5FBF" text-anchor="middle">UC-P09</text><text x="300" y="379" font-family="Inter,Segoe UI,Helvetica,Arial,sans-serif" font-size="12" font-weight="500" fill="#0F1C2E" text-anchor="middle">Evaluación</text><text x="300" y="393" font-family="Inter,Segoe UI,Helvetica,Arial,sans-serif" font-size="12" font-weight="500" fill="#0F1C2E" text-anchor="middle">y objetivo</text><ellipse cx="585" cy="387" rx="76" ry="42" fill="#FFFFFF" stroke="#1F5FBF" stroke-width="1.9"/><text x="585" y="362" font-family="Inter,Segoe UI,Helvetica,Arial,sans-serif" font-size="11.5" font-weight="700" fill="#1F5FBF" text-anchor="middle">UC-P10</text><text x="585" y="379" font-family="Inter,Segoe UI,Helvetica,Arial,sans-serif" font-size="12" font-weight="500" fill="#0F1C2E" text-anchor="middle">Diseño</text><text x="585" y="393" font-family="Inter,Segoe UI,Helvetica,Arial,sans-serif" font-size="12" font-weight="500" fill="#0F1C2E" text-anchor="middle">del plan</text><ellipse cx="870" cy="387" rx="76" ry="42" fill="#FFFFFF" stroke="#1F5FBF" stroke-width="1.9"/><text x="870" y="362" font-family="Inter,Segoe UI,Helvetica,Arial,sans-serif" font-size="11.5" font-weight="700" fill="#1F5FBF" text-anchor="middle">UC-P11</text><text x="870" y="379" font-family="Inter,Segoe UI,Helvetica,Arial,sans-serif" font-size="12" font-weight="500" fill="#0F1C2E" text-anchor="middle">Validación</text><text x="870" y="393" font-family="Inter,Segoe UI,Helvetica,Arial,sans-serif" font-size="12" font-weight="500" fill="#0F1C2E" text-anchor="middle">y activación</text><ellipse cx="1155" cy="387" rx="76" ry="42" fill="#FFFFFF" stroke="#1F5FBF" stroke-width="1.9"/><text x="1155" y="362" font-family="Inter,Segoe UI,Helvetica,Arial,sans-serif" font-size="11.5" font-weight="700" fill="#1F5FBF" text-anchor="middle">UC-P12</text><text x="1155" y="379" font-family="Inter,Segoe UI,Helvetica,Arial,sans-serif" font-size="12" font-weight="500" fill="#0F1C2E" text-anchor="middle">Consulta y</text><text x="1155" y="393" font-family="Inter,Segoe UI,Helvetica,Arial,sans-serif" font-size="12" font-weight="500" fill="#0F1C2E" text-anchor="middle">ejecución</text><ellipse cx="1440" cy="387" rx="76" ry="42" fill="#FFFFFF" stroke="#1F5FBF" stroke-width="1.9"/><text x="1440" y="362" font-family="Inter,Segoe UI,Helvetica,Arial,sans-serif" font-size="11.5" font-weight="700" fill="#1F5FBF" text-anchor="middle">UC-P13</text><text x="1440" y="379" font-family="Inter,Segoe UI,Helvetica,Arial,sans-serif" font-size="12" font-weight="500" fill="#0F1C2E" text-anchor="middle">Revisión y</text><text x="1440" y="393" font-family="Inter,Segoe UI,Helvetica,Arial,sans-serif" font-size="12" font-weight="500" fill="#0F1C2E" text-anchor="middle">continuidad</text><ellipse cx="330" cy="215" rx="68" ry="37" fill="#EAF1FB" stroke="#9FBFEA" stroke-width="1.3" stroke-dasharray="4 3"/><text x="330" y="195" font-family="Inter,Segoe UI,Helvetica,Arial,sans-serif" font-size="11.5" font-weight="700" fill="#6B7A90" text-anchor="middle">UC-I13</text><text x="330" y="212" font-family="Inter,Segoe UI,Helvetica,Arial,sans-serif" font-size="11.5" font-weight="500" fill="#6B7A90" text-anchor="middle">Cálculo</text><text x="330" y="226" font-family="Inter,Segoe UI,Helvetica,Arial,sans-serif" font-size="11.5" font-weight="500" fill="#6B7A90" text-anchor="middle">reproducible</text><ellipse cx="615" cy="215" rx="68" ry="37" fill="#EAF1FB" stroke="#9FBFEA" stroke-width="1.3" stroke-dasharray="4 3"/><text x="615" y="195" font-family="Inter,Segoe UI,Helvetica,Arial,sans-serif" font-size="11.5" font-weight="700" fill="#6B7A90" text-anchor="middle">UC-I07</text><text x="615" y="212" font-family="Inter,Segoe UI,Helvetica,Arial,sans-serif" font-size="11.5" font-weight="500" fill="#6B7A90" text-anchor="middle">Importación</text><text x="615" y="226" font-family="Inter,Segoe UI,Helvetica,Arial,sans-serif" font-size="11.5" font-weight="500" fill="#6B7A90" text-anchor="middle">controlada</text><ellipse cx="615" cy="559" rx="68" ry="37" fill="#EAF1FB" stroke="#9FBFEA" stroke-width="1.3" stroke-dasharray="4 3"/><text x="615" y="539" font-family="Inter,Segoe UI,Helvetica,Arial,sans-serif" font-size="11.5" font-weight="700" fill="#6B7A90" text-anchor="middle">UC-I08</text><text x="615" y="556" font-family="Inter,Segoe UI,Helvetica,Arial,sans-serif" font-size="11.5" font-weight="500" fill="#6B7A90" text-anchor="middle">Fallback</text><text x="615" y="570" font-family="Inter,Segoe UI,Helvetica,Arial,sans-serif" font-size="11.5" font-weight="500" fill="#6B7A90" text-anchor="middle">manual</text><ellipse cx="900" cy="215" rx="68" ry="37" fill="#EAF1FB" stroke="#9FBFEA" stroke-width="1.3" stroke-dasharray="4 3"/><text x="900" y="195" font-family="Inter,Segoe UI,Helvetica,Arial,sans-serif" font-size="11.5" font-weight="700" fill="#6B7A90" text-anchor="middle">UC-I04</text><text x="900" y="212" font-family="Inter,Segoe UI,Helvetica,Arial,sans-serif" font-size="11.5" font-weight="500" fill="#6B7A90" text-anchor="middle">Versionado</text><text x="900" y="226" font-family="Inter,Segoe UI,Helvetica,Arial,sans-serif" font-size="11.5" font-weight="500" fill="#6B7A90" text-anchor="middle">del plan</text><ellipse cx="900" cy="559" rx="68" ry="37" fill="#EAF1FB" stroke="#9FBFEA" stroke-width="1.3" stroke-dasharray="4 3"/><text x="900" y="539" font-family="Inter,Segoe UI,Helvetica,Arial,sans-serif" font-size="11.5" font-weight="700" fill="#6B7A90" text-anchor="middle">UC-I10</text><text x="900" y="556" font-family="Inter,Segoe UI,Helvetica,Arial,sans-serif" font-size="11.5" font-weight="500" fill="#6B7A90" text-anchor="middle">Habilitación</text><text x="900" y="570" font-family="Inter,Segoe UI,Helvetica,Arial,sans-serif" font-size="11.5" font-weight="500" fill="#6B7A90" text-anchor="middle">y capacidad</text><ellipse cx="1470" cy="215" rx="68" ry="37" fill="#EAF1FB" stroke="#9FBFEA" stroke-width="1.3" stroke-dasharray="4 3"/><text x="1470" y="195" font-family="Inter,Segoe UI,Helvetica,Arial,sans-serif" font-size="11.5" font-weight="700" fill="#6B7A90" text-anchor="middle">UC-I05</text><text x="1470" y="212" font-family="Inter,Segoe UI,Helvetica,Arial,sans-serif" font-size="11.5" font-weight="500" fill="#6B7A90" text-anchor="middle">Revisión</text><text x="1470" y="226" font-family="Inter,Segoe UI,Helvetica,Arial,sans-serif" font-size="11.5" font-weight="500" fill="#6B7A90" text-anchor="middle">válida</text><ellipse cx="1470" cy="559" rx="68" ry="37" fill="#EAF1FB" stroke="#9FBFEA" stroke-width="1.3" stroke-dasharray="4 3"/><text x="1470" y="539" font-family="Inter,Segoe UI,Helvetica,Arial,sans-serif" font-size="11.5" font-weight="700" fill="#6B7A90" text-anchor="middle">UC-I06</text><text x="1470" y="556" font-family="Inter,Segoe UI,Helvetica,Arial,sans-serif" font-size="11.5" font-weight="500" fill="#6B7A90" text-anchor="middle">Continuidad</text><text x="1470" y="570" font-family="Inter,Segoe UI,Helvetica,Arial,sans-serif" font-size="11.5" font-weight="500" fill="#6B7A90" text-anchor="middle">o cierre</text><circle cx="118" cy="304" r="8.5" fill="#1FA97A"/><path d="M118 313V334 M105 320H131 M118 334L107 350 M118 334L129 350" stroke="#1FA97A" stroke-width="2" fill="none" stroke-linecap="round"/><text x="118" y="366" font-family="Inter,Segoe UI,Helvetica,Arial,sans-serif" font-size="12" font-weight="700" fill="#0F1C2E" text-anchor="middle">Profesional</text><circle cx="1010" cy="640" r="8.5" fill="#1FA97A"/><path d="M1010 649V670 M997 656H1023 M1010 670L999 686 M1010 670L1021 686" stroke="#1FA97A" stroke-width="2" fill="none" stroke-linecap="round"/><text x="1010" y="702" font-family="Inter,Segoe UI,Helvetica,Arial,sans-serif" font-size="12" font-weight="700" fill="#0F1C2E" text-anchor="middle">Asesorado</text><rect x="40" y="754" width="600" height="106" rx="10" fill="#FBFCFE" stroke="#C9D3E0"/><line x1="60" y1="772" x2="96" y2="772" stroke="#1FA97A" stroke-width="2.6"/><text x="108" y="776" font-family="Inter,Segoe UI,Helvetica,Arial,sans-serif" font-size="11.5" font-weight="600" fill="#0F1C2E" text-anchor="start">Secuencia del circuito — orden del proceso, no relación UML</text><line x1="60" y1="793" x2="96" y2="793" stroke="#1F5FBF" stroke-width="1.4" stroke-dasharray="5 4"/><text x="108" y="797" font-family="Inter,Segoe UI,Helvetica,Arial,sans-serif" font-size="11.5" font-weight="600" fill="#0F1C2E" text-anchor="start">«include» hacia el caso incluido</text><ellipse cx="78" cy="814" rx="18" ry="10" fill="#FFFFFF" stroke="#1F5FBF" stroke-width="1.7"/><text x="108" y="818" font-family="Inter,Segoe UI,Helvetica,Arial,sans-serif" font-size="11.5" font-weight="600" fill="#0F1C2E" text-anchor="start">Caso principal — lo ejecuta un actor</text><ellipse cx="78" cy="835" rx="18" ry="10" fill="#EAF1FB" stroke="#9FBFEA" stroke-width="1.3" stroke-dasharray="4 3"/><text x="108" y="839" font-family="Inter,Segoe UI,Helvetica,Arial,sans-serif" font-size="11.5" font-weight="600" fill="#0F1C2E" text-anchor="start">Caso incluido — lo invoca otro caso</text><text x="674" y="776" font-family="Inter,Segoe UI,Helvetica,Arial,sans-serif" font-size="11.5" font-weight="500" fill="#6B7A90" text-anchor="start">Los casos principales incluyen además UC-I02, UC-I03, UC-I11.</text><text x="674" y="795" font-family="Inter,Segoe UI,Helvetica,Arial,sans-serif" font-size="11.5" font-weight="500" fill="#6B7A90" text-anchor="start">No se dibujan para preservar legibilidad: están en DV-04_RELACIONES_UML.csv.</text><text x="674" y="814" font-family="Inter,Segoe UI,Helvetica,Arial,sans-serif" font-size="11.5" font-weight="500" fill="#6B7A90" text-anchor="start">Nombres canónicos completos en DV-04_UC_INDICE.md.</text><text x="674" y="833" font-family="Inter,Segoe UI,Helvetica,Arial,sans-serif" font-size="11.5" font-weight="500" fill="#6B7A90" text-anchor="start"></text><text x="674" y="852" font-family="Inter,Segoe UI,Helvetica,Arial,sans-serif" font-size="11.5" font-weight="500" fill="#6B7A90" text-anchor="start">Derivado de BE-LEG-05 v0.15 · sin cambio semántico · estado: BASELINE</text></svg>